<?xml version="1.0" encoding="iso-8859-1"?>
<!-- Uploaded to: SVG Repo, www.svgrepo.com, Generator: SVG Repo Mixer Tools -->
<svg height="800px" width="800px" version="1.1" id="Layer_1" xmlns="http://www.w3.org/2000/svg" xmlns:xlink="http://www.w3.org/1999/xlink" 
	 viewBox="0 0 511.997 511.997" xml:space="preserve">
<circle style="fill:#FFD261;" cx="255.998" cy="307.925" r="204.069"/>
<g>
	<path style="fill:#FFDA7D;" d="M109.416,307.916c0-58.482,8.157-113.607,22.571-162.047c-12.738,9.763-24.299,20.984-34.417,33.431
		c-8.95,39.809-13.868,83.2-13.868,128.619c0,45.413,4.918,88.804,13.868,128.619c10.118,12.447,21.679,23.664,34.417,33.431
		C117.57,421.523,109.416,366.395,109.416,307.916z"/>
	<path style="fill:#FFDA7D;" d="M189.474,307.916c0-75.328,14.575-145.08,38.783-202.156c-18.792,2.556-36.77,7.647-53.573,14.955
		c-19.523,54.126-30.835,118.334-30.835,187.202c0,68.865,11.315,133.073,30.835,187.202c16.803,7.304,34.782,12.398,53.57,14.954
		C204.046,452.995,189.474,383.235,189.474,307.916z"/>
	<path style="fill:#FFDA7D;" d="M414.411,179.303c-10.118-12.45-21.679-23.667-34.42-33.434
		c14.414,48.44,22.571,103.565,22.571,162.044c0,58.476-8.157,113.601-22.571,162.044c12.741-9.766,24.302-20.984,34.42-33.431
		c8.947-39.809,13.865-83.2,13.865-128.613C428.276,262.5,423.358,219.112,414.411,179.303z"/>
	<path style="fill:#FFDA7D;" d="M322.502,307.916c0,75.322-14.572,145.08-38.78,202.156c18.792-2.556,36.767-7.65,53.57-14.961
		c19.523-54.123,30.835-118.334,30.835-187.196c0-68.868-11.315-133.073-30.835-187.199c-16.803-7.307-34.782-12.401-53.573-14.958
		C307.93,162.836,322.502,232.588,322.502,307.916z"/>
	<path style="fill:#FFDA7D;" d="M239.581,104.548c-3.746,53.246-6.044,124.743-6.044,203.368c0,78.622,2.295,150.119,6.044,203.365
		c5.419,0.434,10.877,0.716,16.406,0.716s10.987-0.285,16.406-0.716c3.749-53.246,6.044-124.743,6.044-203.365
		c0-78.625-2.298-150.122-6.044-203.368c-5.419-0.431-10.877-0.713-16.406-0.713S245,104.117,239.581,104.548z"/>
</g>
<ellipse style="fill:#346639;" cx="253.297" cy="113.656" rx="29.593" ry="15.911"/>
<g>
	<path style="fill:#428249;" d="M253.497,173.24c4.624,1.563,10.376-1.794,15.792-8.349c5.213,12.359,12.462,20.167,18.686,18.843
		c5.376-1.141,8.698-8.819,9.329-19.536c10.125,11.172,20.82,16.937,25.975,13.251c3.273-2.341,3.643-8.039,1.624-15.258
		c11.655,6.084,21.952,7.684,25.677,3.349c2.447-5.164-3.203-13.922-13.5-22.095c7.414-1.09,12.471-3.749,13.279-7.69
		c1.272-6.205-8.345-13.631-22.669-18.339c9.536-4.936,15.197-11.09,14.053-16.466c-1.321-6.223-11.403-9.678-24.812-9.411
		c3.786-7.614,4.511-14.232,1.202-17.823c-6.199-6.737-24.132-0.313-40.043,14.344c-7.104,6.542-12.839,13.409-16.791,19.493
		c-3.953,6.084-7.893,14.12-10.981,23.267C243.397,151.321,244.821,170.314,253.497,173.24z"/>
	<path style="fill:#428249;" d="M188.43,89.603c-1.618,3.355,0.379,8.03,4.836,12.747c-9.854,2.784-16.451,7.541-16.035,12.377
		c0.358,4.18,5.859,7.42,13.916,8.91c-9.417,6.612-14.791,14.168-12.483,18.421c1.46,2.699,5.747,3.519,11.403,2.669
		c-5.71,8.254-7.89,15.902-4.958,19.135c3.679,2.338,10.844-1.117,18.009-8.145c0.128,5.716,1.664,9.8,4.572,10.78
		c4.581,1.548,11.111-5.036,16.029-15.44c2.839,7.69,6.964,12.556,11.145,12.198c4.842-0.413,8.406-7.723,9.469-17.905
		c5.407,3.585,10.352,4.757,13.385,2.59c5.686-4.059,2.511-18.248-7.089-31.685c-4.284-5.996-8.944-10.987-13.182-14.554
		c-4.235-3.567-9.948-7.31-16.588-10.513C205.983,84.02,191.466,83.306,188.43,89.603z"/>
</g>
<path style="fill:#346639;" d="M257.313,100.668c0.707,6.381-8.364,7.945-8.203,0c0,0-5.95-80.829,55.043-100.668
	c0,0,6.949,3.473,1.988,13.886C306.141,13.886,249.569,30.944,257.313,100.668z"/>
</svg>