<?xml version="1.0" encoding="iso-8859-1"?>
<!-- Uploaded to: SVG Repo, www.svgrepo.com, Generator: SVG Repo Mixer Tools -->
<svg height="800px" width="800px" version="1.1" id="Layer_1" xmlns="http://www.w3.org/2000/svg" xmlns:xlink="http://www.w3.org/1999/xlink" 
	 viewBox="0 0 512 512" xml:space="preserve">
<circle style="fill:#E5E5E5;" cx="256" cy="256" r="244.87"/>
<g>
	<circle style="fill:#AFAFAF;" cx="77.913" cy="256" r="22.261"/>
	<circle style="fill:#AFAFAF;" cx="144.696" cy="367.304" r="44.522"/>
	<circle style="fill:#AFAFAF;" cx="367.304" cy="211.478" r="66.783"/>
</g>
<path d="M437.02,74.98C388.667,26.628,324.381,0,256,0S123.333,26.628,74.98,74.98C26.628,123.333,0,187.62,0,256
	s26.628,132.667,74.98,181.02C123.333,485.372,187.619,512,256,512s132.667-26.628,181.02-74.98C485.372,388.667,512,324.38,512,256
	S485.372,123.333,437.02,74.98z M256,489.739C127.116,489.739,22.261,384.884,22.261,256S127.116,22.261,256,22.261
	S489.739,127.116,489.739,256S384.884,489.739,256,489.739z"/>
<path d="M256,44.522c-48.272,0-95.484,16.691-132.939,46.999c-4.779,3.867-5.518,10.876-1.651,15.654
	c2.199,2.718,5.415,4.129,8.658,4.129c2.459,0,4.935-0.811,6.994-2.479C170.571,81.714,212.808,66.783,256,66.783
	c6.146,0,11.13-4.983,11.13-11.13S262.146,44.522,256,44.522z"/>
<path d="M99.286,130.753c2.119,1.881,4.756,2.805,7.384,2.805c3.072,0,6.131-1.264,8.329-3.743l0.158-0.176
	c4.115-4.567,3.749-11.605-0.818-15.72c-4.566-4.115-11.606-3.749-15.718,0.818l-0.27,0.302
	C94.268,119.638,94.688,126.672,99.286,130.753z"/>
<path d="M111.304,256c0-18.412-14.979-33.391-33.391-33.391S44.522,237.588,44.522,256s14.979,33.391,33.391,33.391
	S111.304,274.412,111.304,256z M77.913,267.13c-6.137,0-11.13-4.993-11.13-11.13c0-6.137,4.993-11.13,11.13-11.13
	s11.13,4.993,11.13,11.13C89.043,262.137,84.05,267.13,77.913,267.13z"/>
<path d="M144.696,311.652c-30.687,0-55.652,24.966-55.652,55.652s24.966,55.652,55.652,55.652s55.652-24.966,55.652-55.652
	S175.382,311.652,144.696,311.652z M144.696,400.696c-18.412,0-33.391-14.979-33.391-33.391s14.979-33.391,33.391-33.391
	s33.391,14.979,33.391,33.391S163.108,400.696,144.696,400.696z"/>
<path d="M367.304,133.565c-42.961,0-77.913,34.952-77.913,77.913s34.952,77.913,77.913,77.913s77.913-34.952,77.913-77.913
	S410.266,133.565,367.304,133.565z M367.304,267.13c-30.687,0-55.652-24.966-55.652-55.652s24.966-55.652,55.652-55.652
	s55.652,24.966,55.652,55.652S397.991,267.13,367.304,267.13z"/>
</svg>