<?xml version="1.0" encoding="iso-8859-1"?>
<!-- Uploaded to: SVG Repo, www.svgrepo.com, Generator: SVG Repo Mixer Tools -->
<svg height="800px" width="800px" version="1.1" id="Layer_1" xmlns="http://www.w3.org/2000/svg" xmlns:xlink="http://www.w3.org/1999/xlink" 
	 viewBox="0 0 508 508" xml:space="preserve">
<circle style="fill:#FFD05B;" cx="254" cy="254" r="254"/>
<polygon style="fill:#FFFFFF;" points="158,405.2 189.6,239.6 131.2,223.6 75.2,370 "/>
<polygon style="fill:#E6E9EE;" points="158,405.2 189.6,239.6 254,223.6 254,370 "/>
<polygon style="fill:#FFFFFF;" points="350,405.2 318.4,239.6 254,223.6 254,370 "/>
<polygon style="fill:#E6E9EE;" points="350,405.2 318.4,239.6 376.8,223.6 432.8,370 "/>
<path style="fill:#FF7058;" d="M260,170.4c0,46-83.6,161.2-83.6,161.2S93.2,216.8,93.2,170.4s37.2-83.6,83.6-83.6
	C222.8,87.2,260,124.4,260,170.4z"/>
<circle style="fill:#FFFFFF;" cx="176.4" cy="169.6" r="51.2"/>
<circle style="fill:#FF7058;" cx="176.4" cy="169.6" r="25.6"/>
</svg>