<?xml version="1.0" encoding="iso-8859-1"?>
<!-- Uploaded to: SVG Repo, www.svgrepo.com, Generator: SVG Repo Mixer Tools -->
<svg height="800px" width="800px" version="1.1" id="Layer_1" xmlns="http://www.w3.org/2000/svg" xmlns:xlink="http://www.w3.org/1999/xlink" 
	 viewBox="0 0 512 512" xml:space="preserve">
<polygon style="fill:#FF7099;" points="256,22.23 331.957,176.135 501.8,200.815 378.9,320.612 407.914,489.77 256,409.904 
	104.087,489.77 133.1,320.612 10.2,200.815 180.044,176.135 "/>
<g>
	<path style="fill:#DB006E;" d="M407.913,499.969c-1.624,0-3.253-0.387-4.745-1.171L256,421.427l-147.167,77.37
		c-3.436,1.806-7.6,1.505-10.741-0.776c-3.141-2.282-4.714-6.149-4.057-9.976l28.107-163.872L3.081,208.117
		c-2.78-2.71-3.781-6.763-2.581-10.455c1.199-3.692,4.392-6.383,8.234-6.942l164.537-23.909l73.584-149.096
		c1.719-3.481,5.264-5.685,9.146-5.685s7.428,2.204,9.147,5.685l73.583,149.097l164.538,23.909c3.842,0.558,7.033,3.249,8.233,6.942
		c1.199,3.692,0.199,7.745-2.58,10.455L389.86,324.173l28.107,163.872c0.657,3.826-0.917,7.693-4.058,9.976
		C412.132,499.312,410.027,499.969,407.913,499.969z M256,399.705c1.631,0,3.261,0.391,4.746,1.171l133.622,70.249l-25.519-148.789
		c-0.567-3.309,0.53-6.685,2.933-9.027l108.102-105.373l-149.395-21.708c-3.322-0.482-6.193-2.569-7.679-5.579L256,45.275
		l-66.81,135.373c-1.486,3.01-4.357,5.097-7.679,5.579L32.118,207.936l108.101,105.373c2.404,2.343,3.501,5.719,2.933,9.027
		l-25.519,148.789l133.622-70.249C252.74,400.096,254.37,399.705,256,399.705z"/>
	<path style="fill:#DB006E;" d="M365.12,439.587c-4.876,0-9.188-3.509-10.041-8.478l-0.971-5.665
		c-0.952-5.551,2.778-10.824,8.33-11.776c5.553-0.955,10.823,2.777,11.776,8.329l0.971,5.665c0.952,5.551-2.778,10.824-8.33,11.776
		C366.273,439.538,365.691,439.587,365.12,439.587z"/>
	<path style="fill:#DB006E;" d="M358.551,401.286c-4.876,0-9.188-3.507-10.041-8.477l-7.522-43.856
		c-0.953-5.551,2.777-10.824,8.329-11.776c5.551-0.955,10.823,2.777,11.777,8.329l7.522,43.856
		c0.953,5.551-2.777,10.824-8.329,11.776C359.704,401.237,359.123,401.286,358.551,401.286z"/>
</g>
</svg>